<svg width="147" height="36" viewBox="0 0 147 36" fill="none" xmlns="http://www.w3.org/2000/svg">
<g id="OnAim_Logo-02" clip-path="url(#clip0_274_4194)">
<g id="Group">
<path id="Vector" d="M62.2768 10.8989C61.2694 9.93013 60.0752 9.17276 58.7295 8.64084C57.3839 8.11245 55.8973 7.84473 54.3086 7.84473C52.7199 7.84473 51.1981 8.11597 49.8419 8.65493C48.4857 9.1939 47.2915 9.95831 46.2946 10.927C45.2942 11.8958 44.5051 13.0477 43.945 14.344C43.3849 15.6439 43.1031 17.0811 43.1031 18.617C43.1031 20.1529 43.3884 21.5901 43.945 22.8899C44.5051 24.1898 45.2942 25.3382 46.2946 26.3069C47.2915 27.2756 48.4927 28.0401 49.8595 28.579C51.2228 29.118 52.7199 29.3892 54.3086 29.3892C55.8973 29.3892 57.3839 29.1215 58.7295 28.5931C60.0752 28.0647 61.2694 27.3073 62.2768 26.3351C63.2878 25.3664 64.0769 24.2145 64.6265 22.9146C65.176 21.6148 65.4543 20.1705 65.4543 18.617C65.4543 17.0635 65.176 15.6192 64.6265 14.3194C64.0769 13.0195 63.2843 11.8711 62.2768 10.8989ZM61.8189 18.617C61.8189 19.6879 61.6287 20.6848 61.2518 21.5866C60.8748 22.4884 60.3429 23.2845 59.6736 23.9538C59.0043 24.6231 58.2047 25.148 57.2958 25.5143C56.387 25.8807 55.3795 26.0674 54.3086 26.0674C53.2377 26.0674 52.2021 25.8807 51.2932 25.5143C50.3844 25.148 49.5777 24.6196 48.8978 23.9503C48.218 23.281 47.6825 22.4848 47.3056 21.583C46.9287 20.6848 46.7385 19.6843 46.7385 18.6135C46.7385 17.5426 46.9287 16.5457 47.3056 15.6439C47.6825 14.7456 48.218 13.9495 48.8978 13.2766C49.5742 12.6073 50.3809 12.0825 51.2932 11.7126C52.2056 11.3427 53.2201 11.1595 54.3086 11.1595C55.3971 11.1595 56.3835 11.3462 57.2958 11.7126C58.2047 12.0789 59.0043 12.6038 59.6736 13.2731C60.3429 13.9424 60.8748 14.7385 61.2518 15.6403C61.6287 16.5421 61.8189 17.539 61.8189 18.6099V18.617Z" fill="#0C0C0C"/>
<path id="Vector_2" d="M80.9469 13.6394C79.9394 13.1322 78.7664 12.875 77.4559 12.875C76.0081 12.875 74.7153 13.1744 73.6198 13.7627C73.1125 14.034 72.6616 14.3616 72.2671 14.7385V13.023H68.8642V29.1567H72.3833V20.8573C72.3833 19.797 72.57 18.9058 72.9364 18.2083C73.2957 17.5214 73.817 16.9965 74.4828 16.6478C75.1627 16.2884 75.9764 16.1088 76.8994 16.1088C78.1076 16.1088 79.0517 16.454 79.7034 17.1304C80.3586 17.8138 80.6897 18.86 80.6897 20.2479V29.1567H84.2088V19.9273C84.2088 18.3598 83.92 17.0423 83.3493 16.0031C82.7716 14.9534 81.9614 14.1608 80.9398 13.6429L80.9469 13.6394Z" fill="#0C0C0C"/>
<path id="Vector_3" d="M96.4219 8.07715L86.879 29.1531H90.6764L92.9098 24.0664H103.249L105.482 29.1531H109.339L99.7648 8.07715H96.4183H96.4219ZM101.907 21.0123H94.2519L98.081 12.3008L101.91 21.0123H101.907Z" fill="#0C0C0C"/>
<path id="Vector_4" d="M113.383 6.42188C112.746 6.42188 112.203 6.63323 111.777 7.04891C111.347 7.4681 111.129 7.9965 111.129 8.62001C111.129 9.24351 111.347 9.74373 111.777 10.1594C112.203 10.5751 112.746 10.7864 113.383 10.7864C114.021 10.7864 114.592 10.568 115.011 10.1383C115.427 9.71203 115.638 9.18011 115.638 8.56012C115.638 7.94014 115.419 7.43992 114.986 7.03129C114.56 6.62619 114.021 6.42188 113.383 6.42188Z" fill="#0C0C0C"/>
<path id="Vector_5" d="M115.141 13.0195H111.622V29.1532H115.141V13.0195Z" fill="#0C0C0C"/>
<path id="Vector_6" d="M145.792 16.0002C145.225 14.9504 144.425 14.1578 143.414 13.64C142.417 13.1327 141.255 12.8721 139.965 12.8721C138.355 12.8721 136.922 13.2525 135.703 14.0028C135.062 14.4009 134.509 14.8729 134.065 15.4119C133.698 14.8588 133.241 14.3939 132.702 14.0275C131.578 13.2631 130.229 12.8756 128.689 12.8756C127.294 12.8756 126.051 13.175 124.994 13.7633C124.526 14.024 124.103 14.3375 123.736 14.6968V13.02H120.334V29.1537H123.853V20.8544C123.853 19.7941 124.036 18.9028 124.395 18.2018C124.747 17.5149 125.244 16.99 125.875 16.6413C126.516 16.2855 127.266 16.1059 128.108 16.1059C129.274 16.1059 130.176 16.4476 130.789 17.1204C131.409 17.8038 131.726 18.8535 131.726 20.245V29.1537H135.245V20.8544C135.245 19.7941 135.421 18.8993 135.773 18.1983C136.115 17.5149 136.608 16.99 137.235 16.6413C137.876 16.2855 138.637 16.1059 139.5 16.1059C140.649 16.1059 141.543 16.4476 142.167 17.1204C142.797 17.8038 143.118 18.8535 143.118 20.245V29.1537H146.637V19.9244C146.637 18.3604 146.352 17.0394 145.795 16.0002H145.792Z" fill="#0C0C0C"/>
</g>
<path id="Vector_7" d="M27.1385 22.8339L31.1402 26.8357C35.8147 21.8053 35.8147 13.9991 31.1402 8.97232L27.1385 12.974C29.6114 15.7886 29.6114 20.0193 27.1385 22.8339ZM12.5758 27.5367L8.57412 31.5384C13.6045 36.2129 21.4071 36.2129 26.441 31.5384L22.4393 27.5367C19.6247 30.0096 15.394 30.0096 12.5794 27.5367H12.5758ZM8.57412 4.26959L12.5758 8.27131C15.3904 5.79841 19.6176 5.79841 22.4357 8.27131L26.4375 4.26959C21.4071 -0.404966 13.6045 -0.404966 8.57412 4.26959ZM7.87311 12.974L3.87139 8.97232C-0.803163 14.0027 -0.803163 21.8053 3.87139 26.8357L7.87311 22.8339C5.40022 20.0193 5.40022 15.7886 7.87311 12.974ZM15.2601 22.2351L13.1747 20.1497C11.9347 18.9097 11.9347 16.8983 13.1747 15.6583L15.2601 13.5729C16.5001 12.3329 18.5115 12.3329 19.7515 13.5729L21.8369 15.6583C23.0769 16.8983 23.0769 18.9097 21.8369 20.1497L19.7515 22.2351C18.5115 23.4751 16.5001 23.4751 15.2601 22.2351Z" fill="#02CC59"/>
</g>
<defs>
<clipPath id="clip0_274_4194">
<rect width="147" height="35.8077" fill="white"/>
</clipPath>
</defs>
</svg>
